<svg xmlns="http://www.w3.org/2000/svg" viewBox="0 0 32 32" width="32" height="32"
     shape-rendering="crispEdges" role="img" aria-label="Graceful Shell">
  <!-- Generated by tool/graceful_sprite.py — edit there, not here.
    o #2b0a18  d #7a2049  m #b53370  l #e072a4  t #f2b9d2  s #c98f63

    ................................
    ................................
    ................................
    ................................
    ................................
    ...............ooooo............
    ............ooolmmmmo...........
    ..........ooddlmmmmo............
    ..........odddlmmmtsso..........
    ...........oddmmmmtssso.........
    .............odmmmmtsso.........
    ...............ommmtso..........
    ..............oodommmooooo......
    ..........oooddmmmmmommmmmo.....
    ........ooommodmmmmmo..odddo....
    ......ooommmmodmmmmlo...........
    .....ododdoddodmmmmlo...........
    ....oddddddd..odmmmlo...........
    ....odddddd...ottttlo...........
    .....oddddd..odmmmmmo...........
    ......oddd.ommmmoommmmmo........
    .........ommmmo....ommmmo.......
    .......ommmmo.......ommmo.......
    ......ommmo.........ommmo.......
    ....odddo............ommmo......
    ....odddo............oddo.......
    .....................odddddo....
    ................................
    ................................
    ................................
    ................................
    ................................
  -->
  <circle cx="16" cy="16" r="15.5" fill="#331228"/>
  <rect x="15" y="5" width="5" height="1" fill="#2b0a18"/>
  <rect x="12" y="6" width="3" height="1" fill="#2b0a18"/>
  <rect x="15" y="6" width="1" height="1" fill="#e072a4"/>
  <rect x="16" y="6" width="4" height="1" fill="#b53370"/>
  <rect x="20" y="6" width="1" height="1" fill="#2b0a18"/>
  <rect x="10" y="7" width="2" height="1" fill="#2b0a18"/>
  <rect x="12" y="7" width="2" height="1" fill="#7a2049"/>
  <rect x="14" y="7" width="1" height="1" fill="#e072a4"/>
  <rect x="15" y="7" width="4" height="1" fill="#b53370"/>
  <rect x="19" y="7" width="1" height="1" fill="#2b0a18"/>
  <rect x="10" y="8" width="1" height="1" fill="#2b0a18"/>
  <rect x="11" y="8" width="3" height="1" fill="#7a2049"/>
  <rect x="14" y="8" width="1" height="1" fill="#e072a4"/>
  <rect x="15" y="8" width="3" height="1" fill="#b53370"/>
  <rect x="18" y="8" width="1" height="1" fill="#f2b9d2"/>
  <rect x="19" y="8" width="2" height="1" fill="#c98f63"/>
  <rect x="21" y="8" width="1" height="1" fill="#2b0a18"/>
  <rect x="11" y="9" width="1" height="1" fill="#2b0a18"/>
  <rect x="12" y="9" width="2" height="1" fill="#7a2049"/>
  <rect x="14" y="9" width="4" height="1" fill="#b53370"/>
  <rect x="18" y="9" width="1" height="1" fill="#f2b9d2"/>
  <rect x="19" y="9" width="3" height="1" fill="#c98f63"/>
  <rect x="22" y="9" width="1" height="1" fill="#2b0a18"/>
  <rect x="13" y="10" width="1" height="1" fill="#2b0a18"/>
  <rect x="14" y="10" width="1" height="1" fill="#7a2049"/>
  <rect x="15" y="10" width="4" height="1" fill="#b53370"/>
  <rect x="19" y="10" width="1" height="1" fill="#f2b9d2"/>
  <rect x="20" y="10" width="2" height="1" fill="#c98f63"/>
  <rect x="22" y="10" width="1" height="1" fill="#2b0a18"/>
  <rect x="15" y="11" width="1" height="1" fill="#2b0a18"/>
  <rect x="16" y="11" width="3" height="1" fill="#b53370"/>
  <rect x="19" y="11" width="1" height="1" fill="#f2b9d2"/>
  <rect x="20" y="11" width="1" height="1" fill="#c98f63"/>
  <rect x="21" y="11" width="1" height="1" fill="#2b0a18"/>
  <rect x="14" y="12" width="2" height="1" fill="#2b0a18"/>
  <rect x="16" y="12" width="1" height="1" fill="#7a2049"/>
  <rect x="17" y="12" width="1" height="1" fill="#2b0a18"/>
  <rect x="18" y="12" width="3" height="1" fill="#b53370"/>
  <rect x="21" y="12" width="5" height="1" fill="#2b0a18"/>
  <rect x="10" y="13" width="3" height="1" fill="#2b0a18"/>
  <rect x="13" y="13" width="2" height="1" fill="#7a2049"/>
  <rect x="15" y="13" width="5" height="1" fill="#b53370"/>
  <rect x="20" y="13" width="1" height="1" fill="#2b0a18"/>
  <rect x="21" y="13" width="5" height="1" fill="#b53370"/>
  <rect x="26" y="13" width="1" height="1" fill="#2b0a18"/>
  <rect x="8" y="14" width="3" height="1" fill="#2b0a18"/>
  <rect x="11" y="14" width="2" height="1" fill="#b53370"/>
  <rect x="13" y="14" width="1" height="1" fill="#2b0a18"/>
  <rect x="14" y="14" width="1" height="1" fill="#7a2049"/>
  <rect x="15" y="14" width="5" height="1" fill="#b53370"/>
  <rect x="20" y="14" width="1" height="1" fill="#2b0a18"/>
  <rect x="23" y="14" width="1" height="1" fill="#2b0a18"/>
  <rect x="24" y="14" width="3" height="1" fill="#7a2049"/>
  <rect x="27" y="14" width="1" height="1" fill="#2b0a18"/>
  <rect x="6" y="15" width="3" height="1" fill="#2b0a18"/>
  <rect x="9" y="15" width="4" height="1" fill="#b53370"/>
  <rect x="13" y="15" width="1" height="1" fill="#2b0a18"/>
  <rect x="14" y="15" width="1" height="1" fill="#7a2049"/>
  <rect x="15" y="15" width="4" height="1" fill="#b53370"/>
  <rect x="19" y="15" width="1" height="1" fill="#e072a4"/>
  <rect x="20" y="15" width="1" height="1" fill="#2b0a18"/>
  <rect x="5" y="16" width="1" height="1" fill="#2b0a18"/>
  <rect x="6" y="16" width="1" height="1" fill="#7a2049"/>
  <rect x="7" y="16" width="1" height="1" fill="#2b0a18"/>
  <rect x="8" y="16" width="2" height="1" fill="#7a2049"/>
  <rect x="10" y="16" width="1" height="1" fill="#2b0a18"/>
  <rect x="11" y="16" width="2" height="1" fill="#7a2049"/>
  <rect x="13" y="16" width="1" height="1" fill="#2b0a18"/>
  <rect x="14" y="16" width="1" height="1" fill="#7a2049"/>
  <rect x="15" y="16" width="4" height="1" fill="#b53370"/>
  <rect x="19" y="16" width="1" height="1" fill="#e072a4"/>
  <rect x="20" y="16" width="1" height="1" fill="#2b0a18"/>
  <rect x="4" y="17" width="1" height="1" fill="#2b0a18"/>
  <rect x="5" y="17" width="7" height="1" fill="#7a2049"/>
  <rect x="14" y="17" width="1" height="1" fill="#2b0a18"/>
  <rect x="15" y="17" width="1" height="1" fill="#7a2049"/>
  <rect x="16" y="17" width="3" height="1" fill="#b53370"/>
  <rect x="19" y="17" width="1" height="1" fill="#e072a4"/>
  <rect x="20" y="17" width="1" height="1" fill="#2b0a18"/>
  <rect x="4" y="18" width="1" height="1" fill="#2b0a18"/>
  <rect x="5" y="18" width="6" height="1" fill="#7a2049"/>
  <rect x="14" y="18" width="1" height="1" fill="#2b0a18"/>
  <rect x="15" y="18" width="4" height="1" fill="#f2b9d2"/>
  <rect x="19" y="18" width="1" height="1" fill="#e072a4"/>
  <rect x="20" y="18" width="1" height="1" fill="#2b0a18"/>
  <rect x="5" y="19" width="1" height="1" fill="#2b0a18"/>
  <rect x="6" y="19" width="5" height="1" fill="#7a2049"/>
  <rect x="13" y="19" width="1" height="1" fill="#2b0a18"/>
  <rect x="14" y="19" width="1" height="1" fill="#7a2049"/>
  <rect x="15" y="19" width="5" height="1" fill="#b53370"/>
  <rect x="20" y="19" width="1" height="1" fill="#2b0a18"/>
  <rect x="6" y="20" width="1" height="1" fill="#2b0a18"/>
  <rect x="7" y="20" width="3" height="1" fill="#7a2049"/>
  <rect x="11" y="20" width="1" height="1" fill="#2b0a18"/>
  <rect x="12" y="20" width="4" height="1" fill="#b53370"/>
  <rect x="16" y="20" width="2" height="1" fill="#2b0a18"/>
  <rect x="18" y="20" width="5" height="1" fill="#b53370"/>
  <rect x="23" y="20" width="1" height="1" fill="#2b0a18"/>
  <rect x="9" y="21" width="1" height="1" fill="#2b0a18"/>
  <rect x="10" y="21" width="4" height="1" fill="#b53370"/>
  <rect x="14" y="21" width="1" height="1" fill="#2b0a18"/>
  <rect x="19" y="21" width="1" height="1" fill="#2b0a18"/>
  <rect x="20" y="21" width="4" height="1" fill="#b53370"/>
  <rect x="24" y="21" width="1" height="1" fill="#2b0a18"/>
  <rect x="7" y="22" width="1" height="1" fill="#2b0a18"/>
  <rect x="8" y="22" width="4" height="1" fill="#b53370"/>
  <rect x="12" y="22" width="1" height="1" fill="#2b0a18"/>
  <rect x="20" y="22" width="1" height="1" fill="#2b0a18"/>
  <rect x="21" y="22" width="3" height="1" fill="#b53370"/>
  <rect x="24" y="22" width="1" height="1" fill="#2b0a18"/>
  <rect x="6" y="23" width="1" height="1" fill="#2b0a18"/>
  <rect x="7" y="23" width="3" height="1" fill="#b53370"/>
  <rect x="10" y="23" width="1" height="1" fill="#2b0a18"/>
  <rect x="20" y="23" width="1" height="1" fill="#2b0a18"/>
  <rect x="21" y="23" width="3" height="1" fill="#b53370"/>
  <rect x="24" y="23" width="1" height="1" fill="#2b0a18"/>
  <rect x="4" y="24" width="1" height="1" fill="#2b0a18"/>
  <rect x="5" y="24" width="3" height="1" fill="#7a2049"/>
  <rect x="8" y="24" width="1" height="1" fill="#2b0a18"/>
  <rect x="21" y="24" width="1" height="1" fill="#2b0a18"/>
  <rect x="22" y="24" width="3" height="1" fill="#b53370"/>
  <rect x="25" y="24" width="1" height="1" fill="#2b0a18"/>
  <rect x="4" y="25" width="1" height="1" fill="#2b0a18"/>
  <rect x="5" y="25" width="3" height="1" fill="#7a2049"/>
  <rect x="8" y="25" width="1" height="1" fill="#2b0a18"/>
  <rect x="21" y="25" width="1" height="1" fill="#2b0a18"/>
  <rect x="22" y="25" width="2" height="1" fill="#7a2049"/>
  <rect x="24" y="25" width="1" height="1" fill="#2b0a18"/>
  <rect x="21" y="26" width="1" height="1" fill="#2b0a18"/>
  <rect x="22" y="26" width="5" height="1" fill="#7a2049"/>
  <rect x="27" y="26" width="1" height="1" fill="#2b0a18"/>
</svg>
